<?xml version="1.0" encoding="UTF-8" standalone="no"?>
<!-- Created with Inkscape (http://www.inkscape.org/) -->

<svg
   xmlns:dc="http://purl.org/dc/elements/1.1/"
   xmlns:cc="http://creativecommons.org/ns#"
   xmlns:rdf="http://www.w3.org/1999/02/22-rdf-syntax-ns#"
   xmlns:svg="http://www.w3.org/2000/svg"
   xmlns="http://www.w3.org/2000/svg"
   xmlns:xlink="http://www.w3.org/1999/xlink"
   xmlns:sodipodi="http://sodipodi.sourceforge.net/DTD/sodipodi-0.dtd"
   xmlns:inkscape="http://www.inkscape.org/namespaces/inkscape"
   width="210mm"
   height="210mm"
   viewBox="0 0 210 210"
   version="1.1"
   id="svg8"
   inkscape:version="0.92.4 (5da689c313, 2019-01-14)"
   sodipodi:docname="cloudpak_svg.svg">
  <defs
     id="defs2">
	<filter id="f3">
	  <feDropShadow dx="4" dy="4" stdDeviation="5"/>
	</filter>
    <linearGradient
       inkscape:collect="always"
       id="linearGradient904">
      <stop
         style="stop-color:#000000;stop-opacity:1;"
         offset="0"
         id="stop900" />
      <stop
         style="stop-color:#000000;stop-opacity:0;"
         offset="1"
         id="stop902" />
    </linearGradient>
    <linearGradient
       inkscape:collect="always"
       xlink:href="#linearGradient904"
       id="linearGradient906"
       x1="-280.633"
       y1="-27.999741"
       x2="-50.781212"
       y2="239.80432"
       gradientUnits="userSpaceOnUse"
       gradientTransform="matrix(2.5509733,0,0,1.4088522,629.76991,105.73976)" />
  </defs>
  <sodipodi:namedview
     id="base"
     pagecolor="#ffffff"
     bordercolor="#666666"
     borderopacity="1.0"
     inkscape:pageopacity="0.0"
     inkscape:pageshadow="2"
     inkscape:zoom="0.49497475"
     inkscape:cx="131.1159"
     inkscape:cy="728.31911"
     inkscape:document-units="mm"
     inkscape:current-layer="layer1"
     showgrid="false"
     inkscape:window-width="1920"
     inkscape:window-height="1017"
     inkscape:window-x="1912"
     inkscape:window-y="-8"
     inkscape:window-maximized="1" />
  <metadata
     id="metadata5">
    <rdf:RDF>
      <cc:Work
         rdf:about="">
        <dc:format>image/svg+xml</dc:format>
        <dc:type
           rdf:resource="http://purl.org/dc/dcmitype/StillImage" />
        <dc:title></dc:title>
      </cc:Work>
    </rdf:RDF>
  </metadata>
  <g
     inkscape:label="Layer 1"
     inkscape:groupmode="layer"
     id="layer1"
     transform="translate(0,-87)"
	 filter="url(#f3)"
  >
    <path
       style="fill:#fefefe;stroke-width:0.26458332"
       d="m 105.96377,290.51502 c -0.21133,-0.13369 -0.73252,-0.2449 -1.1582,-0.24712 -1.08799,-0.006 -82.673683,-47.04835 -82.690304,-47.67958 -0.0065,-0.24608 -0.130843,-0.52099 -0.276364,-0.61093 -0.174854,-0.10807 -0.264583,-16.84789 -0.264583,-49.36041 0,-32.62153 0.08914,-49.19688 0.264583,-49.19688 0.145521,0 0.264584,-0.22024 0.264584,-0.48942 0,-0.66029 81.084124,-47.513364 82.682294,-47.776544 1.3249,-0.21818 1.84726,-0.21836 3.175,-10e-4 1.60587,0.26276 82.68229,47.108294 82.68229,47.773404 0,0.27153 0.11907,0.49368 0.26459,0.49368 0.17544,0 0.26458,16.57535 0.26458,49.19688 0,32.51252 -0.0897,49.25234 -0.26458,49.36041 -0.14552,0.0899 -0.26952,0.36485 -0.27555,0.61093 -0.0157,0.63978 -81.19251,47.44825 -82.681,47.67581 -0.58741,0.0898 -1.1884,0.23767 -1.33555,0.32862 -0.14715,0.0909 -0.44045,0.056 -0.65179,-0.0777 z m 41.8168,-29.96822 38.2323,-22.07945 0.0625,-45.73769 0.0625,-45.73768 -39.83698,-22.99074 c -39.17188,-22.6069 -39.84944,-22.98458 -40.58321,-22.62188 -0.41042,0.20288 -18.377343,10.54871 -39.92649,22.99074 l -39.180266,22.62188 0.06139,45.73359 0.06138,45.7336 39.808463,22.98404 39.808463,22.98404 1.59883,-0.9005 c 0.87936,-0.49527 18.80336,-10.83625 39.83112,-22.97995 z m -44.87333,3.94663 c -0.85636,-0.85636 -0.89958,-0.99105 -0.89958,-2.80343 0,-3.06384 1.16669,-4.1405 4.24543,-3.9178 1.3606,0.0984 1.72529,0.24025 2.43021,0.94517 0.70038,0.70038 0.84698,1.07276 0.94256,2.39415 0.21642,2.99202 -1.00256,4.28149 -4.04746,4.28149 -1.66196,0 -1.82724,-0.0557 -2.67116,-0.89958 z M 75.743649,250.30521 c -2.505253,-0.63233 -4.65499,-2.37422 -5.939981,-4.81306 -0.6872,-1.30426 -0.73664,-1.61118 -0.73664,-4.57309 0,-2.78476 0.07501,-3.32577 0.610288,-4.40164 0.981221,-1.9722 2.301613,-3.30602 4.195906,-4.23857 1.466702,-0.72206 2.111507,-0.87493 4.089191,-0.96949 l 2.347914,-0.11225 8.24371,-14.42537 c 5.68005,-9.9393 8.16929,-14.53025 8.0044,-14.76265 -2.43815,-3.43613 -3.02088,-4.81118 -3.21427,-7.58459 -0.10918,-1.5659 -0.24221,-2.07454 -0.56818,-2.1726 -1.05199,-0.31646 -32.971191,-7.82138 -33.265153,-7.82138 -0.181512,0 -0.402728,0.22907 -0.491591,0.50906 -0.305697,0.96316 -2.306672,2.71776 -4.006546,3.51323 -1.638382,0.76669 -1.815274,0.79281 -4.672179,0.69002 -2.571694,-0.0925 -3.150291,-0.20066 -4.320709,-0.80744 -1.756052,-0.91039 -3.638251,-3.02366 -4.322934,-4.85364 -0.768282,-2.05341 -0.754986,-5.60959 0.02881,-7.70446 0.790347,-2.11239 2.969658,-4.27807 5.118297,-5.08629 1.368525,-0.51477 1.965809,-0.58218 4.363675,-0.49248 3.235605,0.12104 4.656275,0.69385 6.533269,2.6342 1.219332,1.2605 2.455937,3.65678 2.459979,4.76695 0.0016,0.44455 0.175604,0.76225 0.465606,0.85021 0.254662,0.0772 8.02349,1.92759 17.264063,4.1119 l 16.801043,3.97146 0.4511,-0.58834 c 1.2562,-1.63839 1.45088,-1.10684 -3.49338,-9.53776 l -4.56935,-7.79161 -2.41189,-0.10872 c -3.95139,-0.17811 -6.420716,-1.62803 -8.124755,-4.77062 -0.877234,-1.6178 -0.901726,-1.74561 -0.901726,-4.70567 0,-2.73719 0.06968,-3.18883 0.693901,-4.49792 1.727129,-3.62202 5.31375,-5.54252 9.7292,-5.20962 3.60561,0.27185 6.42085,2.20588 7.92223,5.44245 0.59818,1.28954 0.68976,1.83825 0.68976,4.1328 0,2.33373 -0.0864,2.83225 -0.73251,4.22615 -0.40288,0.86918 -0.89911,1.76442 -1.10272,1.98941 -0.32329,0.35723 0.20408,1.38802 4.16033,8.13162 l 4.530543,7.72254 1.20984,-0.18695 c 1.40137,-0.21654 4.19562,-0.24288 5.66881,-0.0534 l 1.01939,0.13108 8.15343,-14.2875 c 7.55887,-13.24564 8.1254,-14.32608 7.76904,-14.81666 -0.21141,-0.29104 -0.70776,-1.18401 -1.10302,-1.98438 -0.65005,-1.31632 -0.71864,-1.73299 -0.71864,-4.36562 0,-2.65059 0.066,-3.04482 0.73931,-4.41592 0.95421,-1.94313 3.16022,-3.97813 5.01232,-4.62378 0.97799,-0.34094 2.13984,-0.48388 3.90566,-0.48052 2.15589,0.004 2.72719,0.10426 4.01509,0.7039 3.33701,1.55371 5.17691,4.30989 5.44007,8.14931 0.20465,2.98593 -0.53448,5.28698 -2.32897,7.25043 -1.88988,2.06784 -3.62299,2.85879 -6.68986,3.05311 l -2.41548,0.15305 -8.21257,14.4187 -8.21258,14.4187 1.05159,1.52393 c 0.70056,1.01521 1.18895,1.48265 1.46309,1.40031 0.22632,-0.068 7.87561,-1.98675 16.99842,-4.26393 l 16.58693,-4.14033 0.29029,-1.35994 c 0.43549,-2.04017 1.20521,-3.4211 2.67126,-4.79242 2.12676,-1.98934 3.27274,-2.38835 6.85939,-2.38835 2.96006,0 3.08787,0.0245 4.70567,0.90172 1.9533,1.05916 3.05081,2.2244 3.99883,4.24558 0.61058,1.30179 0.68821,1.79553 0.68821,4.3777 0,3.34126 -0.40011,4.54742 -2.15153,6.48603 -2.12255,2.34941 -4.84839,3.35842 -8.29952,3.07218 -3.0555,-0.25343 -6.06433,-1.98785 -7.31006,-4.21383 -0.20357,-0.36376 -2.38589,0.12159 -17.19618,3.82447 l -16.96303,4.24112 -0.16283,1.55788 c -0.0896,0.85684 -0.4065,2.2812 -0.70431,3.16524 -0.53814,1.59744 -0.53828,1.61175 -0.0239,2.32046 0.28466,0.39221 1.4552,1.63941 2.60121,2.77156 l 2.08365,2.05845 1.70597,-0.43753 c 6.23836,-1.59997 11.80997,2.17963 12.32251,8.35917 0.28623,3.45113 -0.72277,6.17696 -3.07218,8.29952 -1.93861,1.75142 -3.14477,2.15152 -6.48604,2.15152 -2.58216,0 -3.0759,-0.0776 -4.37769,-0.68821 -2.02731,-0.95088 -3.19086,-2.04991 -4.2336,-3.99882 -0.78148,-1.46063 -0.9029,-1.95654 -0.99791,-4.07576 -0.0731,-1.6313 0.0172,-2.84049 0.27891,-3.73327 l 0.38709,-1.32049 -2.61257,-2.79751 -2.61256,-2.79753 -1.51479,0.70997 c -1.40334,0.65772 -1.77144,0.70996 -5.00292,0.70996 h -3.48812 l -8.153543,14.25948 c -4.48445,7.84271 -8.1866,14.34149 -8.227,14.44173 -0.0404,0.10024 0.33694,0.86379 0.83854,1.69678 2.35482,3.91057 1.66263,9.64215 -1.51069,12.50906 -1.71143,1.54617 -3.59859,2.26119 -6.234189,2.36204 -1.25434,0.048 -2.728953,-0.0259 -3.276915,-0.16419 z m 3.691048,-5.83051 c 1.05857,-0.39909 2.40436,-1.77761 2.74599,-2.81275 0.24681,-0.74784 0.20325,-1.06473 -0.28501,-2.07334 -0.62875,-1.29882 -2.30812,-2.50601 -3.486203,-2.50601 -1.474161,0 -3.653904,2.24091 -3.653904,3.75643 0,1.39017 1.21144,3.04721 2.645968,3.61924 0.87307,0.34814 1.147461,0.35035 2.033159,0.0164 z m 49.052253,-27.77995 c 0.46172,-0.32877 1.07028,-1.11949 1.35235,-1.75716 0.42802,-0.96761 0.46383,-1.30795 0.21647,-2.05745 -0.36495,-1.10583 -2.04642,-2.66895 -3.12611,-2.90609 -1.69831,-0.37301 -3.93878,1.4969 -4.20182,3.50688 -0.15352,1.17305 0.62086,2.48007 2.04028,3.44367 1.11288,0.75548 2.45123,0.67277 3.71883,-0.22985 z m -20.18187,-17.8678 c 3.44147,-1.71495 4.83832,-5.41828 3.23163,-8.56766 -1.18169,-2.3163 -4.6107,-4.28075 -6.68919,-3.83216 -2.96866,0.6407 -5.363383,3.22069 -5.691503,6.1318 -0.26436,2.34531 1.532373,5.15904 4.042263,6.33031 1.76967,0.82584 3.36358,0.8064 5.1068,-0.0623 z M 52.266611,182.96888 c 0.903975,-0.45913 1.488403,-1.14847 1.988597,-2.34561 0.403358,-0.96537 0.395079,-1.06378 -0.188348,-2.23889 -1.476979,-2.97487 -4.848739,-3.21049 -6.550037,-0.45773 -1.127124,1.82372 -0.237998,4.2168 1.931234,5.19791 1.100482,0.49773 1.584698,0.47099 2.818554,-0.15568 z m 109.695349,-0.10084 c 2.15417,-0.97831 3.05428,-3.35805 1.90853,-5.04581 -0.96359,-1.41942 -2.27061,-2.1938 -3.44367,-2.04028 -2.0033,0.26217 -3.87984,2.50376 -3.5091,4.19174 0.21963,0.99995 1.58763,2.57476 2.63189,3.02978 1.03705,0.45187 1.13072,0.44661 2.41235,-0.13543 z M 87.211947,161.92601 c 0.46173,-0.32878 1.07028,-1.1195 1.35235,-1.75717 0.42802,-0.96761 0.46383,-1.30795 0.21647,-2.05744 -0.36766,-1.11405 -2.04903,-2.66953 -3.14599,-2.91047 -1.71115,-0.37583 -4.26462,1.83795 -4.26462,3.6973 0,1.04491 0.90171,2.42856 2.12296,3.25762 1.11288,0.75549 2.45123,0.67277 3.71883,-0.22984 z m 47.862223,-13.47427 c 0.44668,-0.31806 1.06033,-1.06479 1.36368,-1.65941 0.47602,-0.93308 0.51055,-1.21799 0.25214,-2.08049 -0.16468,-0.54965 -0.65995,-1.3599 -1.1006,-1.80055 -0.44065,-0.44065 -1.2509,-0.93593 -1.80055,-1.1006 -0.8625,-0.25842 -1.14742,-0.22389 -2.08049,0.25213 -2.97932,1.51994 -3.12618,4.67358 -0.30762,6.60557 1.08575,0.74423 2.43583,0.66461 3.67344,-0.21665 z m 10.13193,89.29692 c -1.7083,-0.74264 -2.45526,-3.37898 -1.56267,-5.51527 0.96679,-2.31386 4.92272,-2.71236 6.64203,-0.66908 0.56606,0.67273 0.67011,1.06233 0.67011,2.50902 0,0.98182 -0.16438,2.03051 -0.38522,2.45756 -0.74769,1.44588 -3.4358,2.05612 -5.36425,1.21777 z m 19.74537,-13.96929 c -1.84662,-1.23905 -2.04411,-4.52231 -0.37257,-6.19384 0.82726,-0.82727 0.98025,-0.87585 2.75827,-0.87585 1.76477,0 1.94261,0.0552 2.84534,0.88245 0.84192,0.77156 0.97853,1.07062 1.08711,2.37992 0.14685,1.77087 -0.22729,2.83612 -1.31866,3.75445 -1.08694,0.91459 -3.67444,0.94195 -4.99949,0.0529 z M 46.550986,221.89552 c -0.854952,-0.85496 -0.899583,-0.99325 -0.899583,-2.78744 0,-2.18469 0.429687,-3.06703 1.765375,-3.62512 1.150497,-0.48071 3.101315,-0.45731 4.080297,0.0489 1.697295,0.87771 2.36283,3.54102 1.394693,5.58122 -0.586168,1.23526 -1.564029,1.68198 -3.681809,1.68198 -1.648096,0 -1.816294,-0.0569 -2.658973,-0.89958 z M 69.1365,203.59551 c -1.015733,-0.55113 -1.52468,-1.69351 -1.52468,-3.42229 0,-2.6974 1.139058,-3.83645 3.836458,-3.83645 2.701454,0 3.836459,1.1386 3.836459,3.84864 0,2.64097 -1.210832,3.83194 -3.877281,3.81368 -0.850673,-0.006 -1.872602,-0.18744 -2.270956,-0.40358 z m 75.67084,-0.26459 c -0.39836,-0.21614 -0.90437,-0.74124 -1.12448,-1.16689 -0.51555,-0.99696 -0.51491,-3.51506 0.001,-4.51301 0.54912,-1.0617 1.67426,-1.57884 3.4352,-1.57884 2.6974,0 3.83645,1.13906 3.83645,3.83646 0,1.76094 -0.51713,2.88608 -1.57884,3.43511 -0.989,0.51143 -3.61677,0.50406 -4.56939,-0.0128 z m -7.10622,-33.89289 c -0.9698,-0.60204 -1.32175,-1.27499 -1.48277,-2.83503 -0.28532,-2.76453 1.15783,-4.3955 3.88931,-4.3955 2.73148,0 4.17462,1.63097 3.8893,4.3955 -0.16326,1.58182 -0.52452,2.25548 -1.52713,2.84774 -0.96939,0.57264 -3.83813,0.56499 -4.76871,-0.0127 z M 55.543676,155.59621 c -2.091962,-0.84525 -2.557306,-4.93527 -0.754237,-6.62917 0.90016,-0.84565 3.978693,-1.09233 5.030608,-0.40309 2.192861,1.43682 2.312646,5.09356 0.220752,6.73904 -0.545867,0.42938 -1.06304,0.54879 -2.32039,0.53576 -0.889881,-0.009 -1.869411,-0.11837 -2.176733,-0.24254 z m 54.081454,-7.38607 c -0.79828,-0.71326 -0.86446,-0.90342 -0.95781,-2.7519 -0.099,-1.96026 -0.0883,-1.99872 0.83304,-3.0041 0.92696,-1.01149 0.94706,-1.01841 2.95834,-1.01841 2.00059,0 2.03597,0.0119 2.93075,0.9883 0.82301,0.89806 0.90571,1.13481 0.90571,2.59283 0,2.97259 -0.96987,3.95949 -3.89116,3.95949 -1.74566,0 -1.99973,-0.0701 -2.77887,-0.76621 z m -33.263253,-6.29516 c -1.490954,-0.78761 -2.005989,-1.72446 -1.984733,-3.61025 0.01222,-1.0833 0.17403,-1.87427 0.478515,-2.33897 1.43359,-2.18793 5.693218,-1.99464 6.844818,0.31059 0.90593,1.81349 0.42294,4.47267 -0.97927,5.39143 -1.08301,0.70962 -3.25121,0.83257 -4.35933,0.2472 z"
       id="path932"
       inkscape:connector-curvature="0" />
    <path
       style="fill:#000000;stroke-width:0.26458332"
       d=""
       id="path921"
       inkscape:connector-curvature="0" />
    <path
       style="fill:#000000;stroke-width:0.26458332"
       d=""
       id="path919"
       inkscape:connector-curvature="0" />
  </g>
</svg>
