<svg xmlns:dc="http://purl.org/dc/elements/1.1/" xmlns:cc="http://creativecommons.org/ns#" xmlns:rdf="http://www.w3.org/1999/02/22-rdf-syntax-ns#" xmlns:svg="http://www.w3.org/2000/svg" xmlns="http://www.w3.org/2000/svg" xmlns:sodipodi="http://sodipodi.sourceforge.net/DTD/sodipodi-0.dtd" xmlns:inkscape="http://www.inkscape.org/namespaces/inkscape" width="127" height="73" version="1.1" inkscape:version="0.92.4 (5da689c313, 2019-01-14)" sodipodi:docname="LOGO.svg" style=""><rect id="backgroundrect" width="100%" height="100%" x="0" y="0" fill="none" stroke="none" style="" class=""/>
  <defs id="defs2"/>
  <sodipodi:namedview id="base" pagecolor="#ffffff" bordercolor="#666666" borderopacity="1.0" inkscape:pageopacity="0.0" inkscape:pageshadow="2" inkscape:zoom="0.98994949" inkscape:cx="645.90494" inkscape:cy="647.37178" inkscape:document-units="mm" inkscape:current-layer="layer1" showgrid="false" inkscape:window-width="1920" inkscape:window-height="1017" inkscape:window-x="1912" inkscape:window-y="-8" inkscape:window-maximized="1"/>
  <metadata id="metadata5">
    <rdf:RDF>
      <cc:Work rdf:about="">
        <dc:format>image/svg+xml</dc:format>
        <dc:type rdf:resource="http://purl.org/dc/dcmitype/StillImage"/>
        <dc:title/>
      </cc:Work>
    </rdf:RDF>
  </metadata>
  
<g class="currentLayer" style=""><title>Layer 1</title><g inkscape:label="Layer 1" inkscape:groupmode="layer" id="layer1" class="" opacity="1" fill="#a8b6c0" fill-opacity="1">
    <path style="stroke-width: 0.283337px;" d="m2.8965911865234375,72.31167602539062 c-1.731665015220642,-0.8093799948692322 -2.728440046310425,-2.4572598934173584 -2.874577045440674,-4.752289772033691 c-0.14751599729061127,-2.316699981689453 0.4542979896068573,-3.966639995574951 1.9346410036087036,-5.30403995513916 c2.7703099250793457,-2.502810001373291 7.6620378494262695,-1.3587599992752075 8.637873649597168,2.020169973373413 c0.17474199831485748,0.6050699949264526 0.10636699944734573,0.6375100016593933 -1.3439470529556274,0.6375100016593933 c-1.2635810375213623,0 -1.6432329416275024,-0.1225999966263771 -2.193510055541992,-0.7083399891853333 c-1.0648679733276367,-1.1335099935531616 -2.5681910514831543,-0.8560900092124939 -3.3537631034851074,0.6188799738883972 c-0.7627559900283813,1.4321199655532837 -0.16036400198936462,4.584330081939697 0.9580919742584229,5.013519763946533 c0.9047539830207825,0.3471899926662445 2.3095788955688477,0.17408999800682068 2.776762008666992,-0.34213998913764954 c0.6410580277442932,-0.7083699703216553 0.5903859734535217,-0.8985400199890137 -0.239423006772995,-0.8985400199890137 c-0.637507975101471,0 -0.7083420157432556,-0.11333999782800674 -0.7083420157432556,-1.1333500146865845 v-1.1333500146865845 h2.266695976257324 h2.266695976257324 v3.1167099475860596 v3.1167099475860596 h-1.133347988128662 c-0.9568939805030823,0 -1.133347988128662,-0.09120000153779984 -1.133347988128662,-0.5859699845314026 c0,-0.5815799832344055 -0.0066999997943639755,-0.5812000036239624 -0.8948829770088196,0.05119999870657921 c-1.2417269945144653,0.8841800093650818 -3.414731979370117,1.0081499814987183 -4.965620040893555,0.283270001411438 zm30.2029972076416,0.26399001479148865 c-2.762411117553711,-0.837149977684021 -4.37152099609375,-4.057750225067139 -3.6456539630889893,-7.2967000007629395 c0.6078199744224548,-2.7122199535369873 2.668458938598633,-4.33266019821167 5.509645938873291,-4.33266019821167 c3.7292280197143555,0 5.846014022827148,2.099600076675415 5.846014022827148,5.798550128936768 c0,2.8425700664520264 -0.9891949892044067,4.527870178222656 -3.2640368938446045,5.560949802398682 c-1.195878028869629,0.5430899858474731 -3.1524810791015625,0.6618599891662598 -4.445969104766846,0.26985999941825867 zm3.775367021560669,-3.4427900314331055 c0.645110011100769,-0.8676000237464905 0.7604140043258667,-2.905129909515381 0.23603999614715576,-4.171080112457275 c-0.19752000272274017,-0.476859986782074 -0.7122979760169983,-0.9993500113487244 -1.1723560094833374,-1.1899100542068481 c-1.633486032485962,-0.676609992980957 -2.946211099624634,0.2701900005340576 -3.2870941162109375,2.370800018310547 c-0.20629200339317322,1.271239995956421 0.014449999667704105,2.1551499366760254 0.7818570137023926,3.1307499408721924 c0.5082160234451294,0.6460899710655212 0.7878980040550232,0.7554100155830383 1.748687982559204,0.6835399866104126 c0.8432930111885071,-0.06310000270605087 1.287956953048706,-0.2795499861240387 1.692865014076233,-0.8241000175476074 zm22.31612777709961,-2.2479500770568848 v-5.678199768066406 l2.328360080718994,0.08229999989271164 l2.3283700942993164,0.08229999989271164 l0.7039899826049805,2.9042000770568848 c0.3871999979019165,1.597309947013855 0.7799100279808044,2.9042000770568848 0.8726900219917297,2.9042000770568848 c0.09279999881982803,0 0.48548001050949097,-1.3068900108337402 0.8726800084114075,-2.9042000770568848 l0.7039999961853027,-2.9042000770568848 l2.3283700942993164,-0.08229999989271164 l2.328360080718994,-0.08229999989271164 v5.678199768066406 v5.678199768066406 h-1.5493600368499756 h-1.5493600368499756 l-0.07980000227689743,-3.329210042953491 l-0.07980000227689743,-3.329210042953491 l-0.8715400099754333,3.2583699226379395 l-0.8715400099754333,3.2583799362182617 h-1.2534899711608887 h-1.2534899711608887 l-0.8500099778175354,-3.2583799362182617 l-0.8500099778175354,-3.2583699226379395 l-0.07980000227689743,3.329210042953491 l-0.07980000227689743,3.329210042953491 h-1.5493700504302979 h-1.5493500232696533 zm31.167070388793945,0.011500000022351742 V61.22969055175781 h4.816720008850098 h4.81673002243042 v1.4166799783706665 v1.4166899919509888 h-3.1166999340057373 h-3.1167099475860596 v0.7083399891853333 c0,0.7058600187301636 0.008999999612569809,0.7083399891853333 2.691699981689453,0.7083399891853333 h2.691699981689453 v1.2750200033187866 v1.2750200033187866 h-2.691699981689453 h-2.691699981689453 v0.8500099778175354 v0.8500099778175354 h3.2583799362182617 h3.2583699226379395 v1.4166799783706665 v1.4166899919509888 h-4.958399772644043 h-4.958390235900879 zm28.05035972595215,0 V61.22969055175781 h1.7000199556350708 h1.7000199556350708 v4.250050067901611 v4.250060081481934 h2.5500400066375732 h2.550029993057251 v1.4166799783706665 v1.4166899919509888 h-4.250050067901611 h-4.250060081481934 zM0.2569847106933594,50.03782653808594 v-4.675059795379639 h2.3950328826904297 c2.7164649963378906,0 3.7046549320220947,-0.3362100124359131 4.284636974334717,-1.4577699899673462 c0.6203529834747314,-1.1996300220489502 0.597923994064331,-31.91199493408203 -0.02419999986886978,-33.11502456665039 c-0.6221230030059814,-1.2030800580978394 -1.2243729829788208,-1.4110100269317627 -4.086812973022461,-1.4110100269317627 h-2.568660020828247 v-4.675059795379639 v-4.675059795379639 h13.316840171813965 h13.316840171813965 v4.675059795379639 v4.675059795379639 h-2.568660020828247 c-1.4127639532089233,0 -2.8139610290527344,0.13128000497817993 -3.1137750148773193,0.2917400002479553 c-1.3924249410629272,0.745199978351593 -1.4009909629821777,0.8532400131225586 -1.4009909629821777,17.672760009765625 c0,11.58896541595459 0.08905000239610672,15.921384811401367 0.3384999930858612,16.468875885009766 c0.5301830172538757,1.1636199951171875 1.6085729598999023,1.5504300594329834 4.32249116897583,1.5504300594329834 h2.4224350452423096 v4.675059795379639 v4.675069808959961 h-13.316840171813965 h-13.316840171813965 zm31.450408935546875,0.028200000524520874 v-4.646870136260986 l2.574753999710083,-0.0989999994635582 c2.4126288890838623,-0.09279999881982803 2.6178019046783447,-0.14907999336719513 3.258375883102417,-0.8939999938011169 l0.6836220026016235,-0.794979989528656 V27.33331298828125 V11.035430908203125 l-0.8282170295715332,-0.8282099962234497 c-0.7866460084915161,-0.7866500020027161 -0.9501910209655762,-0.828220009803772 -3.258375883102417,-0.828220009803772 h-2.430159091949463 v-4.688759803771973 v-4.688759803771973 l15.229365348815918,0.08550000190734863 l15.229355812072754,0.08550000190734863 l1.8923300504684448,0.7357400059700012 c2.6098999977111816,1.0147299766540527 4.475029945373535,2.2723000049591064 6.310629844665527,4.254970073699951 c1.7208800315856934,1.8587499856948853 3.323240041732788,4.91756010055542 3.811389923095703,7.275680065155029 c0.9381499886512756,4.532010078430176 -0.21799999475479126,9.454270362854004 -3.060230016708374,13.028800010681152 l-1.1901299953460693,1.4967600107192993 l1.2878299951553345,1.4721800088882446 c2.5552799701690674,2.921070098876953 4.110270023345947,6.913790225982666 4.119170188903809,10.576684951782227 c0.004999999888241291,2.1596500873565674 -0.8722400069236755,5.652719974517822 -1.90215003490448,7.572090148925781 c-1.1855900287628174,2.2095000743865967 -4.400579929351807,5.318689823150635 -6.593780040740967,6.376800060272217 c-3.6033899784088135,1.7384699583053589 -3.7454299926757812,1.7508000135421753 -20.176448822021484,1.7508000135421753 H31.70738983154297 zm29.723411560058594,-7.626190185546875 c2.5969700813293457,-1.7199300527572632 3.0299699306488037,-5.153619766235352 0.9297900199890137,-7.373324871063232 c-1.408959984779358,-1.489150047302246 -1.9083499908447266,-1.6038899421691895 -6.9804887771606445,-1.6038899421691895 h-4.689132213592529 v4.769505023956299 c0,2.62322998046875 0.09543000161647797,4.864940166473389 0.21207499504089355,4.981579780578613 c0.11664199829101562,0.11665000021457672 2.2620270252227783,0.1697700023651123 4.767518997192383,0.11806000024080276 c4.4484968185424805,-0.09179999679327011 4.58372688293457,-0.11275000125169754 5.760237216949463,-0.8919299840927124 zm-1.0498299598693848,-21.95417594909668 c2.6654300689697266,-1.657349944114685 3.180180072784424,-5.040279865264893 1.1365200281143188,-7.4690399169921875 c-1.200119972229004,-1.4262499809265137 -2.124959945678711,-1.654289960861206 -6.709033012390137,-1.654289960861206 h-4.117487907409668 v4.769499778747559 c0,2.62322998046875 0.09562999755144119,4.865419864654541 0.21250300109386444,4.982649803161621 c0.1168769970536232,0.11722999811172485 2.061276912689209,0.17035000026226044 4.320889949798584,0.11806000024080276 c3.70084810256958,-0.08560000360012054 4.212357997894287,-0.15974000096321106 5.1566081047058105,-0.7468799948692322 zm16.94367027282715,29.552175521850586 v-4.675059795379639 h1.443809986114502 c1.633239984512329,0 2.7982800006866455,-0.5631700158119202 3.4497299194335938,-1.6675900220870972 c0.504830002784729,-0.8558499813079834 7.856629848480225,-30.593505859375 7.856629848480225,-31.779674530029297 c0,-1.8218200206756592 -1.0339000225067139,-2.5365400314331055 -3.6693100929260254,-2.5365400314331055 h-1.7140899896621704 v-4.675059795379639 v-4.675059795379639 h17.566890716552734 h17.5669002532959 v4.644090175628662 v4.644090175628662 l-2.155780076980591,0.10886000096797943 c-2.527549982070923,0.1276399940252304 -3.2276298999786377,0.6732100248336792 -3.2276298999786377,2.5152900218963623 c0,1.284909963607788 6.87598991394043,29.667985916137695 7.574769973754883,31.267534255981445 c0.6215999722480774,1.4228700399398804 1.8219499588012695,2.1516499519348145 3.5462100505828857,2.1530001163482666 l1.3458499908447266,0.0010000000474974513 v4.675059795379639 v4.675069808959961 H116.85015869140625 H106.79168701171875 v-4.675069808959961 v-4.675059795379639 h0.7212200164794922 c0.9701300263404846,0 2.113960027694702,-1.186110019683838 2.1051700115203857,-2.1829800605773926 c-0.004000000189989805,-0.4356299936771393 -0.29868999123573303,-1.9395699501037598 -0.6552199721336365,-3.342089891433716 l-0.6482200026512146,-2.550029993057251 l-6.087810039520264,-0.07620000094175339 l-6.087820053100586,-0.07620000094175339 l-0.6283000111579895,2.626230001449585 c-0.8311700224876404,3.4742400646209717 -0.8108000159263611,4.276060104370117 0.12737999856472015,5.014039993286133 c0.4106000065803528,0.32297998666763306 1.048110008239746,0.5872300267219543 1.4166899919509888,0.5872300267219543 h0.6701300144195557 v4.675069808959961 v4.675059795379639 h-10.200130462646484 h-10.200139999389648 zm28.263330459594727,-24.012815475463867 c-0.07199999690055847,-0.19480000436306 -0.8062999844551086,-3.2229599952697754 -1.6316800117492676,-6.729259967803955 c-0.8253899812698364,-3.5062899589538574 -1.5802099704742432,-6.4675798416137695 -1.6773899793624878,-6.580629825592041 c-0.09719999879598618,-0.11304999887943268 -0.8658400177955627,2.6919798851013184 -1.7081199884414673,6.233419895172119 c-0.8422799706459045,3.5414299964904785 -1.5870399475097656,6.662089824676514 -1.655019998550415,6.934800148010254 c-0.11264999955892563,0.4519299864768982 0.18312999606132507,0.49584001302719116 3.3398098945617676,0.49584001302719116 c2.651700019836426,0 3.4326999187469482,-0.08299999684095383 3.33240008354187,-0.3541699945926666 z" id="path826" inkscape:connector-curvature="0" opacity="1" fill="#a8b6c0" fill-opacity="1"/>
  </g></g></svg>