<?xml version="1.0" encoding="UTF-8" standalone="no"?>
<!-- Created with Inkscape (http://www.inkscape.org/) -->

<svg
   xmlns:dc="http://purl.org/dc/elements/1.1/"
   xmlns:cc="http://creativecommons.org/ns#"
   xmlns:rdf="http://www.w3.org/1999/02/22-rdf-syntax-ns#"
   xmlns:svg="http://www.w3.org/2000/svg"
   xmlns="http://www.w3.org/2000/svg"
   xmlns:xlink="http://www.w3.org/1999/xlink"
   xmlns:sodipodi="http://sodipodi.sourceforge.net/DTD/sodipodi-0.dtd"
   xmlns:inkscape="http://www.inkscape.org/namespaces/inkscape"
   sodipodi:docname="openolat_svg.svg"
   inkscape:version="0.92.4 (5da689c313, 2019-01-14)"
   id="svg8"
   version="1.1"
   viewBox="0 0 220 210"
   height="210mm"
   width="210mm">
  <defs
     id="defs2">
	<filter id="f3">
		<feDropShadow dx="4" dy="4" stdDeviation="5"/>
	</filter>
    <linearGradient
       inkscape:collect="always"
       id="linearGradient904">
      <stop
         style="stop-color:#000000;stop-opacity:1;"
         offset="0"
         id="stop900" />
      <stop
         style="stop-color:#000000;stop-opacity:0;"
         offset="1"
         id="stop902" />
    </linearGradient>
    <linearGradient
       inkscape:collect="always"
       xlink:href="#linearGradient904"
       id="linearGradient906"
       x1="-280.633"
       y1="-27.999741"
       x2="-50.781212"
       y2="239.80432"
       gradientUnits="userSpaceOnUse"
       gradientTransform="matrix(2.5509733,0,0,1.4088522,629.76991,105.73976)" />
  </defs>
  <sodipodi:namedview
     id="base"
     pagecolor="#ffffff"
     bordercolor="#666666"
     borderopacity="1.0"
     inkscape:pageopacity="0.0"
     inkscape:pageshadow="2"
     inkscape:zoom="0.49497475"
     inkscape:cx="906.18547"
     inkscape:cy="183.55189"
     inkscape:document-units="mm"
     inkscape:current-layer="layer1"
     showgrid="false"
     inkscape:window-width="1920"
     inkscape:window-height="1017"
     inkscape:window-x="1912"
     inkscape:window-y="-8"
     inkscape:window-maximized="1"
     inkscape:snap-bbox="true" />
  <metadata
     id="metadata5">
    <rdf:RDF>
      <cc:Work
         rdf:about="">
        <dc:format>image/svg+xml</dc:format>
        <dc:type
           rdf:resource="http://purl.org/dc/dcmitype/StillImage" />
        <dc:title></dc:title>
      </cc:Work>
    </rdf:RDF>
  </metadata>
  <g
     inkscape:label="Layer 1"
     inkscape:groupmode="layer"
     id="layer1"
     transform="translate(0,-87)"
	 filter="url(#f3)"
	 >
    <path
       inkscape:connector-curvature="0"
       id="path921"
       d=""
       style="fill:#37719c;stroke-width:0.26458332;opacity:1" />
    <path
       inkscape:connector-curvature="0"
       id="path919"
       d=""
       style="fill:#37719c;stroke-width:0.26458332;opacity:1" />
    <g
       id="g947"
       transform="translate(1.058333,1.0690777)"
       style="opacity:1">
      <path
         inkscape:connector-curvature="0"
         id="path961"
         d="M 45.547601,238.1169 C 37.407421,237.59947 30.111702,235.17905 23.60493,230.83722 15.221938,225.24343 9.2398545,216.79479 6.2218887,206.28673 5.5867906,204.07542 4.8777327,200.66684 4.682827,198.88816 4.1413232,193.94649 4.1705539,186.44977 4.748573,182.02633 c 0.755363,-5.78061 2.8915207,-12.31108 5.705069,-17.44104 1.999687,-3.64604 4.415346,-6.87888 7.340419,-9.82358 3.420951,-3.44391 6.572876,-5.71051 10.934431,-7.86312 3.873252,-1.91162 7.155163,-2.96467 11.43429,-3.66885 2.921258,-0.48073 4.742888,-0.61652 8.247685,-0.61481 8.033666,0.004 14.181362,1.48484 22.208733,5.34994 6.140618,2.95664 12.381914,7.19976 18.842245,12.80981 0.8935,0.7759 4.738312,4.52583 8.544026,8.33318 3.805719,3.80734 6.963009,6.90597 7.016199,6.88584 0.0532,-0.0201 0.86998,-0.88011 1.81508,-1.91107 3.37178,-3.6781 9.49793,-9.97225 11.60185,-11.92001 7.16976,-6.63762 13.30529,-10.9671 20.44647,-14.42789 6.11101,-2.96154 10.80643,-4.35969 16.68282,-4.9676 1.90435,-0.19701 7.28652,-0.19814 9.24741,-0.002 7.79706,0.78013 14.20837,3.00665 20.36928,7.07385 10.92978,7.21543 17.69727,18.7205 19.62649,33.36603 0.30481,2.31392 0.30598,11.56857 0.002,14.0938 -1.19729,9.93884 -4.49068,18.20215 -10.02178,25.14519 -1.39774,1.75454 -4.46041,4.81391 -6.23243,6.22572 -6.33148,5.04443 -13.62184,8.14421 -21.49397,9.13899 -8.72593,1.10266 -16.95232,0.11347 -24.86802,-2.99031 -7.91046,-3.10173 -14.97006,-7.58122 -23.4309,-14.86747 -3.33571,-2.87263 -8.51427,-7.87651 -11.96924,-11.56549 -0.93337,-0.9966 -1.74344,-1.83084 -1.80014,-1.85388 -0.0567,-0.023 -2.1694,1.97656 -4.69488,4.44355 -7.44405,7.27167 -8.924222,8.65354 -12.107403,11.30328 -3.723566,3.09957 -8.538171,6.5077 -11.951155,8.4599 -1.971047,1.12743 -5.917279,3.0432 -7.970689,3.8695 -7.154577,2.87907 -14.584995,4.02645 -22.724612,3.50905 z m 5.687671,-22.73712 c 4.524429,-0.36141 8.605071,-1.58478 13.556937,-4.06433 5.248247,-2.62797 11.630362,-7.22128 18.294054,-13.16653 2.632503,-2.34869 7.20316,-6.90569 7.161713,-7.14032 -0.02021,-0.11439 -1.445306,-1.52335 -3.166885,-3.13101 -1.721579,-1.60766 -4.083416,-3.81658 -5.248527,-4.90871 -5.736404,-5.3771 -11.387536,-9.50385 -17.614034,-12.86267 -5.090893,-2.74623 -8.979006,-4.12259 -12.978453,-4.59427 -0.764023,-0.0901 -2.205521,-0.11997 -3.810057,-0.0789 -2.12136,0.0543 -2.850635,0.1233 -4.094683,0.38762 -3.929958,0.83501 -7.103084,2.51574 -9.809989,5.19613 -4.125457,4.08504 -6.937414,9.9328 -7.753726,16.12469 -0.199122,1.51037 -0.193999,5.80511 0.0089,7.43541 0.413394,3.32215 1.190583,5.9613 2.57602,8.74755 3.01827,6.07004 8.048291,10.03407 14.565325,11.47857 2.707486,0.60011 5.551368,0.79742 8.313436,0.57679 z m 111.892998,5.3e-4 c 5.66175,-0.42816 9.78085,-2.11989 13.22799,-5.43275 3.77832,-3.63115 6.22946,-8.64309 7.09837,-14.51435 0.31397,-2.12157 0.3137,-6.88355 0,-9.10402 -0.44483,-3.14336 -1.40538,-6.34519 -2.64261,-8.80866 -3.55793,-7.08426 -8.92646,-10.91477 -16.72115,-11.93074 -1.94258,-0.2532 -5.64906,-0.25192 -7.47381,0.003 -1.74794,0.2438 -4.28943,0.88162 -5.92228,1.48628 -1.51928,0.5626 -5.49493,2.48409 -7.37293,3.56344 -3.85725,2.2169 -8.40444,5.53468 -12.46384,9.09401 -1.67147,1.46558 -7.05232,6.64372 -10.02984,9.65201 l -1.87448,1.89384 0.99972,0.95018 c 1.87864,1.78555 8.37035,7.71639 9.68478,8.84805 6.26988,5.39802 12.68598,9.44593 18.87486,11.90811 4.98492,1.9832 9.73718,2.76096 14.61574,2.39202 z"
         style="fill:#37719c;stroke-width:0.12496492;opacity:1" />
    </g>
  </g>
</svg>
