<?xml version="1.0" encoding="UTF-8" standalone="no"?>
<!-- Created with Inkscape (http://www.inkscape.org/) -->

<svg
   xmlns:dc="http://purl.org/dc/elements/1.1/"
   xmlns:cc="http://creativecommons.org/ns#"
   xmlns:rdf="http://www.w3.org/1999/02/22-rdf-syntax-ns#"
   xmlns:svg="http://www.w3.org/2000/svg"
   xmlns="http://www.w3.org/2000/svg"
   xmlns:sodipodi="http://sodipodi.sourceforge.net/DTD/sodipodi-0.dtd"
   xmlns:inkscape="http://www.inkscape.org/namespaces/inkscape"
   width="210mm"
   height="210mm"
   viewBox="0 0 210 210"
   version="1.1"
   id="svg8"
   inkscape:version="0.92.4 (5da689c313, 2019-01-14)"
   sodipodi:docname="redmine_svg.svg">
  <defs id="defs2">
	<filter id="f3">
	  <feDropShadow dx="4" dy="4" stdDeviation="5"/>
	</filter>
  </defs>
  <sodipodi:namedview
     id="base"
     pagecolor="#ffffff"
     bordercolor="#666666"
     borderopacity="1.0"
     inkscape:pageopacity="0.0"
     inkscape:pageshadow="2"
     inkscape:zoom="0.49497475"
     inkscape:cx="131.1159"
     inkscape:cy="728.31911"
     inkscape:document-units="mm"
     inkscape:current-layer="g856"
     showgrid="false"
     inkscape:window-width="1920"
     inkscape:window-height="1017"
     inkscape:window-x="1912"
     inkscape:window-y="-8"
     inkscape:window-maximized="1" />
  <metadata
     id="metadata5">
    <rdf:RDF>
      <cc:Work
         rdf:about="">
        <dc:format>image/svg+xml</dc:format>
        <dc:type
           rdf:resource="http://purl.org/dc/dcmitype/StillImage" />
        <dc:title></dc:title>
      </cc:Work>
    </rdf:RDF>
  </metadata>
  <g
     inkscape:label="Layer 1"
     inkscape:groupmode="layer"
     id="layer1"
     transform="translate(0,-87)"
	 filter="url(#f3)"
  >
    <g
       id="g856"
       transform="matrix(0.51000944,0,0,0.51000944,-76.00229,165.31324)">
      <path
         id="path815"
         d="m 168.74351,182.05772 h 81.51397 l 5.82244,-69.87299 -75.69544,-17.463408 z M 183.29958,83.072587 256.07992,100.53987 273.54719,39.404387 212.41171,7.3849211 Z M 218.23026,-4.2638126 276.45452,27.759533 323.03782,-4.2638126 279.36961,-53.754441 Z M 544.28615,182.05772 h -81.51009 l -5.82631,-69.87299 75.69543,-17.463408 z M 529.73008,83.072587 456.94975,100.53987 439.48635,39.404387 500.61795,7.3849211 Z M 494.79553,-4.2638126 436.57126,27.759533 389.99572,-4.2638126 433.66393,-53.754441 Z M 293.92569,-62.488079 337.59388,-10.08624 h 40.75311 l 37.84965,-52.401839 -37.84965,-11.644854 h -41.77785 z"
         inkscape:connector-curvature="0"
         style="fill:#4c4c4c;stroke-width:3.88161755" />
      <path
         id="path817"
         d="m 168.74351,182.05772 h 81.51397 l 5.82244,-69.87299 -75.69544,-17.463408 z"
         inkscape:connector-curvature="0"
         style="fill:#9c0000;stroke-width:3.88161755" />
      <path
         id="path819"
         d="M 183.29958,83.072587 256.07992,100.53987 273.54719,39.404387 212.41171,7.3849211 Z"
         inkscape:connector-curvature="0"
         style="fill:#b50808;stroke-width:3.88161755" />
      <path
         id="path821"
         d="M 218.23026,-4.2638126 276.45452,27.759533 323.03782,-4.2638126 279.36961,-53.754441 Z"
         inkscape:connector-curvature="0"
         style="fill:#c61818;stroke-width:3.88161755" />
      <path
         id="path823"
         d="m 544.28615,182.05772 h -81.51009 l -5.82631,-69.87299 75.69543,-17.463408 z"
         inkscape:connector-curvature="0"
         style="fill:#9c0000;stroke-width:3.88161755" />
      <path
         id="path825"
         d="M 529.73008,83.072587 456.94975,100.53987 439.48635,39.404387 500.61795,7.3849211 Z"
         inkscape:connector-curvature="0"
         style="fill:#b50808;stroke-width:3.88161755" />
      <path
         id="path827"
         d="M 494.79553,-4.2638126 436.57126,27.759533 389.99572,-4.2638126 433.66393,-53.754441 Z"
         inkscape:connector-curvature="0"
         style="fill:#c61818;stroke-width:3.88161755" />
      <path
         id="path829"
         d="m 293.92569,-62.488079 43.66819,52.401839 h 40.75311 l 37.84965,-52.401839 -37.84965,-11.644854 h -41.77785 z"
         inkscape:connector-curvature="0"
         style="fill:#ce3129;stroke-width:3.88161755" />
    </g>
  </g>
</svg>
